<svg width="526" height="527" viewBox="0 0 526 527" fill="none" xmlns="http://www.w3.org/2000/svg">
<path d="M520.038 209.56H357.808H357.778C336.048 209.55 320.968 214.23 311.828 222.27C302.828 230.12 297.708 243.24 297.668 263.44C297.708 283.64 302.818 296.82 311.848 304.76C320.988 312.87 336.048 317.59 357.778 317.58H357.808H520.038C523.698 300.14 525.758 282.1 525.758 263.57C525.758 245.04 523.698 227.01 520.038 209.56Z" fill="#A169F9"/>
<path d="M354.929 364.86C319.519 364.87 291.379 356.67 271.469 339.34C251.459 321.96 241.729 296.04 241.769 263.44C241.729 231.01 251.469 205.14 271.449 187.69C291.149 170.44 318.929 162.27 353.799 162.28H353.829H353.849H354.969L505.389 162.51C465.769 67.6 372.259 0.790039 262.979 0.790039C117.849 0.790039 0.199219 118.44 0.199219 263.57C0.199219 408.7 117.849 526.35 262.979 526.35C372.169 526.35 465.619 459.66 505.289 364.86H354.939H354.929Z" fill="#A169F9"/>
<path d="M92.7009 506.79C139.225 506.79 176.941 469.074 176.941 422.55C176.941 376.025 139.225 338.31 92.7009 338.31C46.1765 338.31 8.46094 376.025 8.46094 422.55C8.46094 469.074 46.1765 506.79 92.7009 506.79Z" fill="#FF7400"/>
<path d="M92.7006 431.609C97.7043 431.609 101.761 427.553 101.761 422.549C101.761 417.546 97.7043 413.489 92.7006 413.489C87.6969 413.489 83.6406 417.546 83.6406 422.549C83.6406 427.553 87.6969 431.609 92.7006 431.609Z" stroke="white" stroke-width="2" stroke-miterlimit="10"/>
<path d="M141.351 370.72L98.8906 415.95" stroke="white" stroke-width="2" stroke-miterlimit="10"/>
<path d="M22.3828 425.759H42.9528" stroke="white" stroke-width="2" stroke-miterlimit="10"/>
<path d="M27.8711 395.549L46.6211 404.009" stroke="white" stroke-width="2" stroke-miterlimit="10"/>
<path d="M42.4727 373.789L57.1627 388.209" stroke="white" stroke-width="2" stroke-miterlimit="10"/>
<path d="M64.9336 358.959L72.6836 377.989" stroke="white" stroke-width="2" stroke-miterlimit="10"/>
<path d="M159.574 425.759H139.004" stroke="white" stroke-width="2" stroke-miterlimit="10"/>
<path d="M154.082 395.549L135.332 404.009" stroke="white" stroke-width="2" stroke-miterlimit="10"/>
<path d="M117.023 358.959L109.273 377.989" stroke="white" stroke-width="2" stroke-miterlimit="10"/>
<path d="M91.1038 353.699L91.0938 374.269" stroke="white" stroke-width="2" stroke-miterlimit="10"/>
</svg>
