<svg width="2644" height="738" viewBox="0 0 2644 738" fill="none" xmlns="http://www.w3.org/2000/svg">
<path d="M501.84 293.521L501.8 293.531C471.35 293.511 450.21 300.081 437.41 311.331C424.8 322.331 417.62 340.711 417.57 369.021C417.62 397.331 424.79 415.791 437.44 426.921C450.25 438.281 471.36 444.891 501.79 444.881H501.83H729.15C734.28 420.441 737.17 395.171 737.17 369.201C737.17 343.241 734.28 317.971 729.15 293.531H501.84V293.521Z" fill="white"/>
<path d="M497.802 511.13C448.182 511.14 408.752 499.65 380.862 475.37C352.822 451.01 339.192 414.69 339.252 369.02C339.192 323.58 352.842 287.33 380.842 262.87C408.442 238.7 447.372 227.26 496.232 227.26H496.272H496.302L497.872 227.27L708.642 227.59C653.122 94.5905 522.092 0.980469 368.972 0.980469C165.612 0.980469 0.761719 165.83 0.761719 369.19C0.761719 572.55 165.612 737.41 368.972 737.41C521.972 737.41 652.912 643.96 708.512 511.13H497.822H497.802Z" fill="white"/>
<path d="M939.982 239.181L854.042 345.611H790.762V393.151H853.672L939.982 499.951H1012.76L905.242 369.381L1012.76 239.181H939.982Z" fill="white"/>
<path d="M1695.76 258.93C1680.76 245.28 1659.73 238.45 1632.67 238.45H1413.6V499.94H1472.11V403.75H1632.67C1659.73 403.75 1680.76 396.93 1695.76 383.27C1710.75 369.62 1718.25 348.89 1718.25 321.1C1718.25 293.31 1710.75 272.59 1695.76 258.93ZM1650.41 348.17C1644.68 353.54 1636.45 356.22 1625.72 356.22L1472.11 355.85V286H1625.72C1636.44 286 1644.67 288.63 1650.41 293.86C1656.14 299.11 1659 308.18 1659 321.11C1659 333.79 1656.13 342.81 1650.41 348.17Z" fill="white"/>
<path d="M1817.73 238.45L1699.97 499.94H1763.61L1788.48 444.71H1937.33L1962.2 499.94H2025.84L1908.07 238.45H1817.73ZM1809.68 397.18L1860.51 284.17H1865.26L1916.1 397.18H1809.68Z" fill="white"/>
<path d="M2359.36 239.181H2286.58L2200.64 345.611H2113.59V239.181H2055.08V499.951H2113.59V393.151H2200.27L2286.58 499.951H2359.36L2251.84 369.381L2359.36 239.181Z" fill="white"/>
<path d="M2512.6 454.23C2480.9 454.23 2457.38 447.46 2442.01 433.93C2426.65 420.4 2418.97 398.76 2418.97 369.02C2418.97 339.27 2426.65 317.7 2442.01 304.28C2457.37 290.88 2480.9 284.16 2512.6 284.16H2640.24V237.35L2508.58 236.62C2460.3 236.38 2423.36 247.47 2397.77 269.9C2372.17 292.33 2359.37 325.37 2359.37 369.01C2359.37 412.9 2372.17 445.99 2397.77 468.31C2423.37 490.62 2460.31 501.77 2508.58 501.77H2643.9V454.23H2512.6Z" fill="white"/>
<path d="M1338.62 270.09C1313.02 247.78 1276.08 236.62 1227.8 236.62H1194.89H1161.98C1113.7 236.62 1076.77 247.78 1051.16 270.09C1025.56 292.39 1012.76 325.37 1012.76 369.02C1012.76 412.9 1025.56 446 1051.16 468.31C1076.76 490.62 1112.84 501.78 1159.41 501.78H1194.89H1230.37C1276.94 501.78 1313.02 490.62 1338.62 468.31C1364.22 446.01 1377.02 412.9 1377.02 369.02C1377.02 325.37 1364.22 292.4 1338.62 270.09ZM1296.64 433.93C1281.28 447.46 1257.75 454.23 1226.06 454.23H1163.74C1132.04 454.23 1108.52 447.46 1093.16 433.93C1077.8 420.39 1070.12 398.76 1070.12 369.01C1070.12 339.26 1077.8 317.68 1093.16 304.28C1108.52 290.87 1132.05 284.17 1163.74 284.17H1226.06C1257.76 284.17 1281.28 290.88 1296.64 304.28C1312 317.69 1319.68 339.26 1319.68 369.01C1319.68 398.76 1312 420.39 1296.64 433.93Z" fill="white"/>
</svg>
